<svg width="0" height="0" style="position:absolute"><symbol viewBox="0 0 24 24" fill="none" id="arrow-slider" xmlns="http://www.w3.org/2000/svg"><path d="M6 12H18.5M18.5 12L12.5 6M18.5 12L12.5 18" stroke="currentColor" stroke-linecap="round" stroke-linejoin="round"/></symbol><symbol viewBox="0 0 40 40" fill="none" id="facebook" xmlns="http://www.w3.org/2000/svg"><path d="M25 10H22C20.6739 10 19.4021 10.5268 18.4645 11.4645C17.5268 12.4021 17 13.6739 17 15V18H14V22H17V30H21V22H24L25 18H21V15C21 14.7348 21.1054 14.4804 21.2929 14.2929C21.4804 14.1054 21.7348 14 22 14H25V10Z" stroke="currentColor" stroke-width="1.5" stroke-linecap="round" stroke-linejoin="round"/></symbol><symbol viewBox="0 0 40 40" fill="none" id="instagram" xmlns="http://www.w3.org/2000/svg"><path d="M20 24C22.2091 24 24 22.2091 24 20C24 17.7909 22.2091 16 20 16C17.7909 16 16 17.7909 16 20C16 22.2091 17.7909 24 20 24Z" stroke="currentColor" stroke-width="1.5" stroke-linecap="round" stroke-linejoin="round"/><path d="M11 24V16C11 13.2386 13.2386 11 16 11H24C26.7614 11 29 13.2386 29 16V24C29 26.7614 26.7614 29 24 29H16C13.2386 29 11 26.7614 11 24Z" stroke="currentColor" stroke-width="1.5"/><path d="M25.5 14.51L25.51 14.4989" stroke="currentColor" stroke-width="1.5" stroke-linecap="round" stroke-linejoin="round"/></symbol><symbol viewBox="0 0 40 40" fill="none" id="telegram" xmlns="http://www.w3.org/2000/svg"><path d="M29 13L10 20.5L17 21.5M29 13L26.5 28L17 21.5M29 13L17 21.5M17 21.5V27L20.2488 23.7229" stroke="currentColor" stroke-width="1.5" stroke-linecap="round" stroke-linejoin="round"/></symbol><symbol viewBox="0 0 40 40" fill="none" id="twitter" xmlns="http://www.w3.org/2000/svg"><path d="M24.8198 28.7684L11.7532 11.9684C11.4466 11.5742 11.7275 11 12.2268 11H14.7065C14.8917 11 15.0665 11.0855 15.1802 11.2316L28.2468 28.0316C28.5534 28.4258 28.2725 29 27.7732 29H25.2935C25.1083 29 24.9335 28.9145 24.8198 28.7684Z" stroke="currentColor" stroke-width="1.5"/><path d="M28 11L12 29" stroke="currentColor" stroke-width="1.5" stroke-linecap="round"/></symbol></svg>