<svg width="40" height="40" viewBox="0 0 40 40" fill="none" xmlns="http://www.w3.org/2000/svg">
<path d="M20 24C22.2091 24 24 22.2091 24 20C24 17.7909 22.2091 16 20 16C17.7909 16 16 17.7909 16 20C16 22.2091 17.7909 24 20 24Z" stroke="currentColor" stroke-width="1.5" stroke-linecap="round" stroke-linejoin="round"/>
<path d="M11 24V16C11 13.2386 13.2386 11 16 11H24C26.7614 11 29 13.2386 29 16V24C29 26.7614 26.7614 29 24 29H16C13.2386 29 11 26.7614 11 24Z" stroke="currentColor" stroke-width="1.5"/>
<path d="M25.5 14.51L25.51 14.4989" stroke="currentColor" stroke-width="1.5" stroke-linecap="round" stroke-linejoin="round"/>
</svg>
