<svg width="24" height="24" viewBox="0 0 24 24" fill="none" xmlns="http://www.w3.org/2000/svg">
<g clip-path="url(#clip0_19002_215)">
<path d="M18.2944 14.8224L17.4729 14.3481L19.6742 13.7583L19.3103 12.4006L15.7513 13.3542L14.0727 12.385C14.0958 12.26 14.1086 12.1315 14.1086 12C14.1086 11.8684 14.0959 11.7398 14.0727 11.6149L15.7513 10.6457L19.3103 11.5994L19.6742 10.2416L17.4729 9.65177L18.2944 9.17747L21.8195 8.96588L22.3386 6.03095L19.5374 5.01305L17.5915 7.96016L16.7701 8.43446L17.3599 6.23317L16.0022 5.86939L15.0485 9.42842L13.3689 10.3982C13.1742 10.2315 12.9491 10.0997 12.7029 10.0124V8.0742L15.3083 5.46879L14.3144 4.47488L12.7029 6.08633V5.13772L14.2774 1.98876L12.0001 0L9.72284 1.98886L11.2973 5.13782V6.08642L9.68583 4.47497L8.69192 5.46889L11.2973 8.0743V10.0125C11.0511 10.0998 10.826 10.2316 10.6313 10.3983L8.95167 9.42852L7.99806 5.86949L6.64032 6.23326L7.23017 8.43456L6.40868 7.96025L4.46283 5.01314L1.66162 6.03104L2.18072 8.96597L5.70591 9.17757L6.5274 9.65187L4.32611 10.2417L4.68993 11.5994L8.24896 10.6458L9.9276 11.615C9.90445 11.74 9.89171 11.8685 9.89171 12C9.89171 12.1316 9.9044 12.2602 9.9276 12.3851L8.24896 13.3543L4.68993 12.4006L4.32611 13.7584L6.5274 14.3482L5.70591 14.8225L2.18072 15.034L1.66162 17.969L4.46288 18.9869L6.40872 16.0397L7.23026 15.5654L6.64042 17.7667L7.99815 18.1306L8.95177 14.5715L10.6314 13.6018C10.8261 13.7684 11.0512 13.9003 11.2974 13.9875V15.9258L8.69201 18.5311L9.68592 19.525L11.2974 17.9135V18.8621L9.72294 22.0111L12.0002 24L14.2775 22.0111L12.703 18.8621V17.9135L14.3145 19.525L15.3084 18.5311L12.7031 15.9258V13.9875C12.9493 13.9003 13.1743 13.7684 13.369 13.6018L15.0487 14.5715L16.0023 18.1306L17.36 17.7667L16.7702 15.5654L17.5917 16.0397L19.5376 18.9869L22.3388 17.969L21.8197 15.034L18.2944 14.8224Z" fill="#FF4646"/>
</g>
<defs>
<clipPath id="clip0_19002_215">
<rect width="24" height="24" fill="white"/>
</clipPath>
</defs>
</svg>
